<svg width="64" height="64" viewBox="0 0 64 64" fill="none" xmlns="http://www.w3.org/2000/svg">
  <!-- Brain outline -->
  <path d="M32 4C20 4 12 14 12 24C12 34 20 44 32 44C44 44 52 34 52 24C52 14 44 4 32 4Z" 
        stroke="#7B1FA2" stroke-width="3" fill="url(#brainGradient)"/>
  
  <!-- Path / connection lines -->
  <line x1="32" y1="12" x2="32" y2="20" stroke="#fff" stroke-width="2"/>
  <line x1="32" y1="32" x2="32" y2="40" stroke="#fff" stroke-width="2"/>
  <line x1="20" y1="24" x2="28" y2="24" stroke="#fff" stroke-width="2"/>
  <line x1="36" y1="24" x2="44" y2="24" stroke="#fff" stroke-width="2"/>
  
  <!-- Nodes -->
  <circle cx="32" cy="12" r="2.5" fill="#fff"/>
  <circle cx="32" cy="32" r="2.5" fill="#fff"/>
  <circle cx="20" cy="24" r="2.5" fill="#fff"/>
  <circle cx="44" cy="24" r="2.5" fill="#fff"/>

  <!-- Gradient -->
  <defs>
    <linearGradient id="brainGradient" x1="12" y1="4" x2="52" y2="44" gradientUnits="userSpaceOnUse">
      <stop stop-color="#CE93D8"/>
      <stop offset="1" stop-color="#7B1FA2"/>
    </linearGradient>
  </defs>
</svg>
